<svg width="40" height="40" viewBox="0 0 40 40" fill="none" xmlns="http://www.w3.org/2000/svg">
<g clip-path="url(#clip0_101_109)">
<path d="M38.0387 23.9423C38.222 23.942 38.4035 23.9781 38.5728 24.0483C38.742 24.1186 38.8957 24.2216 39.0249 24.3516C39.1541 24.4815 39.2563 24.6358 39.3256 24.8054C39.3949 24.9751 39.4299 25.1568 39.4286 25.34V31.6565C39.4299 31.8389 39.3952 32.0198 39.3266 32.1888C39.2579 32.3578 39.1566 32.5117 39.0284 32.6415C38.9002 32.7713 38.7477 32.8746 38.5796 32.9454C38.4115 33.0162 38.231 33.0532 38.0486 33.0542C37.8662 33.0532 37.6857 33.0162 37.5176 32.9454C37.3495 32.8746 37.197 32.7713 37.0688 32.6415C36.9407 32.5117 36.8393 32.3578 36.7707 32.1888C36.702 32.0198 36.6673 31.8389 36.6686 31.6565V29.4386C33.0786 35.4633 26.4152 39.7137 19.2353 39.7137C10.5413 39.7137 3.25486 34.3495 0.0946636 26.0813C-0.0380247 25.7368 -0.0296652 25.3539 0.117932 25.0156C0.265528 24.6772 0.54048 24.4106 0.883235 24.2735C1.59295 23.9955 2.39335 24.3524 2.66935 25.0719C5.42935 32.2913 11.7143 36.9202 19.2353 36.9202C25.881 36.9202 32.089 32.6186 34.9811 26.7595L32.0811 26.7792C31.8987 26.7794 31.718 26.7437 31.5494 26.6741C31.3808 26.6045 31.2275 26.5023 31.0984 26.3734C30.9694 26.2445 30.8669 26.0914 30.7971 25.9229C30.7272 25.7544 30.6912 25.5737 30.6912 25.3913C30.6865 25.023 30.8281 24.6679 31.085 24.404C31.3419 24.1401 31.6931 23.9889 32.0614 23.9837L38.0387 23.9423ZM20.1973 0.285156C28.8874 0.285156 36.1757 5.64941 39.3359 13.9176C39.4686 14.2621 39.4603 14.645 39.3127 14.9833C39.1651 15.3217 38.8901 15.5883 38.5474 15.7254C38.3778 15.7915 38.1968 15.8233 38.0148 15.8189C37.8328 15.8145 37.6535 15.7739 37.4874 15.6997C37.3212 15.6254 37.1714 15.5188 37.0468 15.3862C36.9221 15.2535 36.8251 15.0974 36.7613 14.927C34.0013 7.70758 27.7164 3.07867 20.1954 3.07867C13.5497 3.07867 7.34164 7.38033 4.44955 13.2394L7.34952 13.2197C7.53195 13.2194 7.71263 13.2551 7.88125 13.3248C8.04986 13.3944 8.20309 13.4966 8.33218 13.6255C8.46127 13.7544 8.56367 13.9075 8.63354 14.076C8.70341 14.2445 8.73938 14.4252 8.73938 14.6076C8.74412 14.9759 8.60248 15.331 8.34557 15.5949C8.08867 15.8588 7.73751 16.01 7.36924 16.0152L1.38989 16.0566C1.20663 16.0568 1.02514 16.0208 0.855878 15.9506C0.686618 15.8803 0.532946 15.7773 0.40373 15.6473C0.274514 15.5174 0.172313 15.3631 0.103025 15.1934C0.0337365 15.0238 -0.00126672 14.8421 3.50178e-05 14.6588V8.34238C3.50178e-05 7.56958 0.617092 6.94464 1.38004 6.94464C2.14101 6.94464 2.76004 7.56958 2.76004 8.34238V10.5602C6.35001 4.53556 13.0134 0.285156 20.1934 0.285156H20.1973Z" fill="#959DAE"/>
</g>
<path d="M20.8398 10.233V13.2012H19.311V10.233H20.8398ZM20.6512 26.4441V29.1046H19.1323V26.4441H20.6512ZM22.1502 23.2376C22.1502 22.8537 22.0708 22.5195 21.912 22.235C21.7597 21.9438 21.5083 21.6823 21.1575 21.4507C20.8067 21.2125 20.3368 20.9907 19.7478 20.7856C18.9007 20.4878 18.1595 20.1536 17.5241 19.7829C16.8954 19.4057 16.4057 18.9424 16.0549 18.3931C15.7108 17.8372 15.5387 17.1456 15.5387 16.3184C15.5387 15.5043 15.724 14.7995 16.0946 14.2039C16.4719 13.6082 16.9947 13.1483 17.6631 12.824C18.3316 12.4997 19.1125 12.3376 20.0059 12.3376C20.6942 12.3376 21.313 12.4401 21.8623 12.6453C22.4182 12.8505 22.8914 13.1516 23.2819 13.5487C23.6724 13.9458 23.9702 14.4355 24.1754 15.0179C24.3871 15.5937 24.493 16.2555 24.493 17.0033H22.1105C22.1105 16.5798 22.0609 16.2025 21.9616 15.8716C21.8689 15.5341 21.73 15.2495 21.5447 15.0179C21.3593 14.7796 21.1343 14.5976 20.8696 14.4719C20.6115 14.3462 20.317 14.2833 19.9861 14.2833C19.5162 14.2833 19.129 14.3726 18.8246 14.5513C18.5202 14.7234 18.2952 14.9616 18.1496 15.2661C18.0106 15.5705 17.9411 15.918 17.9411 16.3084C17.9411 16.6857 18.0139 17.0166 18.1595 17.3011C18.3051 17.5857 18.5533 17.8438 18.904 18.0755C19.2614 18.3005 19.7511 18.5288 20.3732 18.7604C21.227 19.0649 21.9649 19.4057 22.587 19.7829C23.2157 20.1536 23.6989 20.6135 24.0364 21.1628C24.3805 21.7055 24.5526 22.3905 24.5526 23.2177C24.5526 24.0715 24.354 24.7962 23.957 25.3918C23.5665 25.9874 23.0172 26.4408 22.309 26.7518C21.6075 27.0563 20.7902 27.2085 19.857 27.2085C19.268 27.2085 18.6823 27.1324 18.0999 26.9801C17.5241 26.8213 17.0013 26.5632 16.5314 26.2058C16.0615 25.8484 15.6876 25.3753 15.4097 24.7862C15.1317 24.1906 14.9927 23.4626 14.9927 22.6023H17.3951C17.3951 23.1185 17.4646 23.5487 17.6036 23.8928C17.7425 24.2369 17.9312 24.5083 18.1694 24.7068C18.4077 24.9054 18.6724 25.0477 18.9636 25.1337C19.2614 25.2197 19.5592 25.2627 19.857 25.2627C20.3534 25.2627 20.7703 25.18 21.1079 25.0146C21.452 24.8425 21.7101 24.6042 21.8822 24.2998C22.0609 23.9888 22.1502 23.6347 22.1502 23.2376Z" fill="#01D560"/>
<defs>
<clipPath id="clip0_101_109">
<rect width="39.4286" height="39.4286" fill="white" transform="translate(0 0.285156)"/>
</clipPath>
</defs>
</svg>
