<svg width="382" height="88" viewBox="0 0 382 88" fill="none" xmlns="http://www.w3.org/2000/svg">
<path d="M194.942 15.2461C199.615 15.2461 203.239 16.5703 205.813 19.2186C208.197 21.6999 209.389 24.9805 209.389 29.0603C209.389 33.1402 208.197 36.4088 205.813 38.8663C203.239 41.5146 199.615 42.8388 194.942 42.8388H151.709C149.706 42.8388 148.073 43.6022 146.81 45.1292C145.546 46.6562 144.914 48.6245 144.914 51.0342V66.5663H133.9V51.0342C133.9 47.1453 135.069 43.8885 137.405 41.2641C139.765 38.6635 142.697 37.3632 146.202 37.3632H191.295C193.607 37.3632 195.395 36.5758 196.659 35.0011C197.803 33.5458 198.375 31.5655 198.375 29.0603C198.375 26.5313 197.803 24.5391 196.659 23.0837C195.395 21.509 193.607 20.7217 191.295 20.7217H133.9V15.2461H194.942Z" fill="white"/>
<path d="M297.537 15.2461V20.7217H269.287C266.951 20.7217 265.151 21.509 263.887 23.0837C262.743 24.5391 262.171 26.5313 262.171 29.0603V52.7879C262.171 56.8677 260.967 60.1364 258.559 62.5938C255.984 65.2421 252.349 66.5663 247.652 66.5663H216.112V61.0907H244.041C246.377 61.0907 248.165 60.3034 249.404 58.7287C250.573 57.2733 251.157 55.2811 251.157 52.7521V29.0603C251.157 24.9805 252.349 21.6999 254.733 19.2186C257.307 16.5703 260.943 15.2461 265.639 15.2461H297.537Z" fill="white"/>
<path d="M382 15.2461V20.7217H317.525V38.2579H367.553C372.226 38.2579 375.85 39.582 378.424 42.2304C380.808 44.6878 382 48.0758 382 52.3942C382 56.7126 380.808 60.1125 378.424 62.5938C375.85 65.2421 372.226 66.5663 367.553 66.5663H306.511V61.0907H363.906C366.218 61.0907 368.006 60.3034 369.27 58.7287C370.414 57.2733 370.986 55.1618 370.986 52.3942C370.986 49.6504 370.414 47.5509 369.27 46.0955C368.006 44.5208 366.218 43.7335 363.906 43.7335H322.358C313.606 43.7335 306.511 36.6389 306.511 27.8873V15.2461H382Z" fill="white"/>
<path d="M56.1064 83.6558L58.6782 84.7675L58.6886 81.9657L58.9149 20.9613L62.658 22.5313V43.3596V43.8724L62.9222 44.312L64.5067 43.3596C62.9222 44.312 62.9228 44.3129 62.9234 44.3139L62.9246 44.316L62.9273 44.3204L62.9335 44.3305L62.949 44.3555C62.9608 44.3742 62.9754 44.397 62.9928 44.4236C63.0278 44.4768 63.0745 44.5453 63.1333 44.6267C63.2509 44.7893 63.4178 45.0043 63.638 45.2517C64.0777 45.7458 64.7356 46.3752 65.643 46.9721C67.4857 48.1841 70.269 49.201 74.1356 48.7945L74.1374 48.7943C74.8913 48.7143 75.5729 48.3508 76.1072 47.9744C76.675 47.5744 77.2414 47.0424 77.7814 46.415C78.8638 45.1572 79.9324 43.4081 80.7478 41.2475C82.3881 36.9013 83.0246 30.8385 80.6514 23.6028C79.3417 19.6088 76.0635 16.4094 72.2389 13.8763C68.3816 11.3216 63.7367 9.29182 59.3161 7.72311C54.883 6.14997 50.6039 5.01568 47.439 4.27508C45.8544 3.90429 44.5441 3.63102 43.627 3.44995C43.1683 3.35939 42.8078 3.29183 42.5601 3.24661C42.4362 3.224 42.3406 3.20697 42.275 3.19544L42.1993 3.18225L42.1789 3.17873L42.173 3.17774L42.1712 3.17743C42.1706 3.17733 42.1702 3.17725 41.8614 5L42.1702 3.17725L40.0127 2.81176V5V61.5601L37.6326 62.3381L37.6324 62.3382L37.632 62.3383L37.6314 62.3385L37.6311 62.3386L37.6196 62.3423L37.5637 62.36C37.5119 62.3762 37.4315 62.401 37.324 62.4331C37.1088 62.4974 36.7851 62.5908 36.3648 62.7031C35.5239 62.9278 34.2987 63.2273 32.7841 63.5195C29.7484 64.105 25.5837 64.6542 21.0385 64.5259L21.0379 64.5259C20.9333 64.523 20.844 64.5171 20.7682 64.5096C20.8417 64.3218 20.9476 64.1127 21.0696 63.9069L38.4437 59.29L39.8177 58.9249V57.5033V48.7532V46.565L37.6601 46.9305C29.0513 48.389 20.4321 50.8546 13.9044 53.7794C10.6487 55.2381 7.82808 56.8485 5.78215 58.5639C3.80091 60.225 2.19773 62.2801 2.15274 64.6619C2.07262 68.9028 5.18698 71.674 8.99532 73.3025C12.8436 74.9481 17.9489 75.7123 23.205 75.7745H23.2052C28.4843 75.8364 32.3518 75.2512 34.9365 74.6306C36.2282 74.3204 37.1973 74.002 37.8599 73.7524C38.1911 73.6277 38.4456 73.5203 38.6252 73.4398C38.715 73.3996 38.7861 73.3661 38.8388 73.3407C38.8651 73.3279 38.8868 73.3172 38.9039 73.3086L38.9262 73.2973L38.9347 73.2929L38.9384 73.291L38.94 73.2901C38.9408 73.2897 38.9416 73.2893 38.0874 71.6498L38.9416 73.2893L39.9186 72.7803L39.9359 71.6788L40.0127 66.7801V75.4847V76.6996L41.1279 77.1816L56.1064 83.6558ZM20.3934 64.4313C20.3935 64.4312 20.3966 64.4326 20.4021 64.4358C20.396 64.4331 20.3932 64.4315 20.3934 64.4313ZM20.6672 64.8689C20.6676 64.8796 20.6671 64.8855 20.6667 64.8858C20.6663 64.8861 20.6661 64.8808 20.6672 64.8689ZM58.884 70.9407V72.2486V80.5178V83.0658L61.3062 82.2754L60.7327 80.5178C61.3062 82.2754 61.3064 82.2753 61.3068 82.2752L61.3081 82.2747L61.3131 82.2731L61.3328 82.2667L61.4095 82.2416L61.7076 82.1437C61.9686 82.0579 62.3515 81.9316 62.8403 81.7694C63.818 81.445 65.2195 80.9769 66.9174 80.4014C70.3121 79.2508 74.8953 77.6693 79.6437 75.948C84.3879 74.2282 89.3164 72.3617 93.3948 70.6413C95.4328 69.7816 97.279 68.9499 98.7927 68.1841C100.267 67.4381 101.558 66.6905 102.387 65.9817C103.416 65.103 103.977 63.9488 103.985 62.6541C103.992 61.4443 103.517 60.3053 102.888 59.3251C101.637 57.3727 99.4059 55.4716 96.8763 53.8851C94.3119 52.2769 91.2717 50.8865 88.2351 50.0354C85.2852 49.2087 82.1784 48.8462 79.4659 49.4325C79.3862 49.4374 79.2787 49.4445 79.1452 49.4542C78.8414 49.4763 78.4028 49.5121 77.8506 49.5675C76.747 49.6783 75.1862 49.8677 73.3392 50.1836C69.66 50.8127 64.7833 51.954 60.1111 54.0104C59.5356 54.2616 59.2845 54.716 59.2324 54.8103L59.2313 54.8121C59.1425 54.9728 59.0977 55.1111 59.0794 55.171C59.0398 55.3003 59.0227 55.4075 59.017 55.4445C59.0027 55.5361 58.9962 55.6184 58.9932 55.6604C58.9861 55.7581 58.9818 55.8721 58.9787 55.9816C58.9722 56.2088 58.9685 56.5176 58.9665 56.87C58.9624 57.5793 58.9651 58.5156 58.9705 59.4439C58.9758 60.3737 58.9838 61.3018 58.9905 61.997C58.9939 62.3447 58.9969 62.6344 58.999 62.8373L59.0016 63.0729L59.0023 63.1351L59.0025 63.1511L59.0025 63.1552L59.0026 63.1563L59.0026 63.1565C59.0026 63.1566 59.0026 63.1566 60.8512 63.1353L59.0026 63.1566L59.0292 65.4668L61.2773 64.9342L83.429 59.687L86.6581 61.1348L60.1173 70.5053L58.884 70.9407Z" fill="white" stroke="url(#paint0_linear_1_353)" stroke-width="3.69744"/>
<defs>
<linearGradient id="paint0_linear_1_353" x1="53.0681" y1="5" x2="53.0681" y2="81.9589" gradientUnits="userSpaceOnUse">
<stop stop-color="white" stop-opacity="0.21"/>
<stop offset="1" stop-color="white" stop-opacity="0.04"/>
</linearGradient>
</defs>
</svg>
